<?xml version="1.0" encoding="UTF-8"?>
<svg width="48pt" height="48pt" version="1.1" viewBox="0 0 752 752" xmlns="http://www.w3.org/2000/svg">
 <g fill="#221b7f">
  <path d="m412.52 416.4 34.625-22.484c16.91-10.98 23.43-33.316 13.602-50.918-10.773-19.305-35.508-25.195-53.746-13.355l-35.746 23.215c-10.523 6.832-20.938-8.9922-10.316-15.887l34.277-22.258c25.66-16.66 60.605-11.414 78.477 13.418 18.449 25.621 13.492 62.379-16.59 81.914l-34.262 22.254c-10.57 6.8477-20.906-9.0273-10.32-15.898z"/>
  <path d="m276.71 459.43c-16.613-25.582-10.875-60.699 18.27-79.629l34.184-22.203c10.566-6.8633 20.898 9.0156 10.32 15.887l-34.633 22.492c-16.91 10.98-23.422 33.32-13.582 50.926 10.789 19.297 35.508 25.184 53.738 13.344l35.746-23.215c10.523-6.832 20.938 8.9922 10.316 15.887l-35.746 23.211c-26.242 17.059-61.523 9.6211-78.613-16.699z"/>
  <path d="m551.23 210.25h-350.45c-15.695 0-28.414 12.719-28.414 28.414v274.68c0 15.695 12.719 28.414 28.414 28.414h350.45c15.695 0 28.414-12.719 28.414-28.414v-274.68c0-15.695-12.719-28.414-28.414-28.414zm-33.152 18.941c7.8477 0 14.207 6.3594 14.207 14.207 0 7.8477-6.3594 14.207-14.207 14.207-7.8477 0-14.207-6.3594-14.207-14.207 0-7.8477 6.3594-14.207 14.207-14.207zm-56.828 0c7.8477 0 14.207 6.3594 14.207 14.207 0 7.8477-6.3594 14.207-14.207 14.207s-14.207-6.3594-14.207-14.207c0-7.8477 6.3594-14.207 14.207-14.207zm-56.828 0c7.8477 0 14.207 6.3594 14.207 14.207 0 7.8477-6.3594 14.207-14.207 14.207-7.8477 0-14.207-6.3594-14.207-14.207-0.003907-7.8477 6.3594-14.207 14.207-14.207zm146.81 279.41c0 2.6133-2.1211 4.7344-4.7344 4.7344h-340.98c-2.6133 0-4.7344-2.1211-4.7344-4.7344v-227.32c0-2.6133 2.1211-4.7344 4.7344-4.7344h340.98c2.6133 0 4.7344 2.1211 4.7344 4.7344z"/>
  <path d="m331.12 412.79 79.434-51.586c10.566-6.8633 20.898 9.0156 10.32 15.887l-79.434 51.59c-10.566 6.8594-20.898-9.0195-10.32-15.891z"/>
 </g>
</svg>
